<svg xmlns='http://www.w3.org/2000/svg' viewBox='0 0 64 64'>
  <defs>
    <radialGradient id='bg' cx='50%' cy='35%' r='75%'>
      <stop offset='0%' stop-color='#2d1713'/>
      <stop offset='100%' stop-color='#0f0908'/>
    </radialGradient>
    <linearGradient id='fg' x1='0' x2='1' y1='0' y2='1'>
      <stop offset='0%' stop-color='#ff884d'/>
      <stop offset='100%' stop-color='#742914'/>
    </linearGradient>
    <filter id='s' x='-50%' y='-50%' width='200%' height='200%'>
      <feDropShadow dx='0' dy='2' stdDeviation='1.8' flood-color='#000' flood-opacity='0.7'/>
    </filter>
  </defs>
  <rect x='4' y='4' width='56' height='56' rx='12' fill='url(#bg)' stroke='#7f4a31' stroke-width='2'/>
  <g fill='url(#fg)' filter='url(#s)'>
    <path d="M34 7c5 8 10 13 10 21 0 8-5 14-12 14-8 0-14-6-14-14 0-6 4-11 9-16 0 4 2 7 4 9 2-3 3-8 3-14z"/><path d="M32 29c3 3 5 5 5 8 0 3-2 6-5 6s-5-3-5-6c0-2 1-4 3-6z"/>
  </g>
</svg>
